<svg id="Layer_1" data-name="Layer 1" xmlns="http://www.w3.org/2000/svg" viewBox="0 0 2500 2500"><defs><style>.cls-1{fill:#fff;}</style></defs><title>Artboard 1</title><path class="cls-1" d="M184.63,1820.35a188.28,188.28,0,0,1,22.2-4.5,198,198,0,0,1,31.21-2.43,164.19,164.19,0,0,1,27.4,2.07,46.9,46.9,0,0,1,20.46,8.32,37.64,37.64,0,0,1,12.48,17q4.15,10.77,4.16,28.1v68a168.69,168.69,0,0,1,32.95-9.72,197.6,197.6,0,0,1,34.33-2.77,170.14,170.14,0,0,1,63.12,11.8,156.6,156.6,0,0,1,52.72,34.32q22.88,22.54,36.06,55.85t13.18,77q0,45.07-13.53,78.73t-37.8,55.82q-24.29,22.21-59.3,33.64T346.94,2283q-45.78,0-77.69-10.75t-54.1-26.72Q184.63,2224,184.63,2190ZM346.94,2190q31.89,0,49.59-21.84t17.68-64.86q0-43.71-18-65.2t-48.55-21.5a90.62,90.62,0,0,0-23.93,2.78,136.57,136.57,0,0,0-21.85,8.32V2179a70.86,70.86,0,0,0,18.38,8Q331,2190,346.94,2190Z"/><path class="cls-1" d="M592.46,1939.65q6.93-2.07,21.86-4.17a224.08,224.08,0,0,1,30.86-2.07,164.1,164.1,0,0,1,27.4,2.07q12.12,2.1,20.45,8.34a40,40,0,0,1,12.84,17q4.5,10.76,4.5,28.08V2138q0,28.45,13.88,40.57t40.23,12.14q15.94,0,26-2.77a88.76,88.76,0,0,0,15.6-5.55V1939.65q6.93-2.07,21.85-4.17a224.19,224.19,0,0,1,30.86-2.07,164.1,164.1,0,0,1,27.4,2.07q12.13,2.1,20.46,8.34a40,40,0,0,1,12.84,17q4.5,10.76,4.5,28.08v210.86q0,34.68-29.12,52Q870.58,2267,837,2275t-73.18,8q-37.44,0-69-8.34T640.32,2249A114.82,114.82,0,0,1,605,2204.26q-12.48-27.41-12.49-66.24Z"/><path class="cls-1" d="M1209.75,2058.25q0-21.48-12.13-31.56t-32.95-10a110.41,110.41,0,0,0-27.4,3.47,69.25,69.25,0,0,0-23.24,10.4v240.68q-6.93,2.07-21.84,4.17a224.44,224.44,0,0,1-30.87,2.07,164,164,0,0,1-27.4-2.07q-12.12-2.1-20.46-8.34a39.88,39.88,0,0,1-12.82-17q-4.53-10.72-4.52-28.08V2013.87q0-18.73,8-30.53t21.84-21.5q23.58-16.63,59.3-27t79.42-10.4q78.38,0,120.69,34.33t42.3,95.38v217.09q-6.93,2.07-21.84,4.17a224.55,224.55,0,0,1-30.87,2.07,163.93,163.93,0,0,1-27.4-2.07q-12.13-2.1-20.46-8.34a39.9,39.9,0,0,1-12.83-17q-4.52-10.72-4.51-28.08Z"/><path class="cls-1" d="M1385.92,2103.34q0-45.78,13.87-79.41t38.5-55.84a158,158,0,0,1,57.57-32.95q32.92-10.74,71.09-10.75a149.79,149.79,0,0,1,27,2.43,109,109,0,0,1,21.5,5.89V1820.35a188.28,188.28,0,0,1,22.2-4.5,198,198,0,0,1,31.21-2.43,164.19,164.19,0,0,1,27.4,2.07,46.9,46.9,0,0,1,20.46,8.32,37.78,37.78,0,0,1,12.48,17q4.15,10.77,4.16,28.1v328.75q0,32.63-30.51,52-20.13,13.17-52,23.24T1577.35,2283q-45.09,0-80.8-12.49t-60.34-36.07a155,155,0,0,1-37.46-56.53Q1385.91,2145,1385.92,2103.34Zm197-86.7q-37.45,0-57.57,21.5t-20.11,65.2q0,43,18.73,64.86t54.1,21.84a63,63,0,0,0,22.54-3.82q10-3.81,15.61-8.67V2025Q1602.31,2016.65,1582.9,2016.64Z"/><path class="cls-1" d="M1926.92,2271.19q-7.64,1.38-22.53,3.81a187.5,187.5,0,0,1-30.18,2.43,163.93,163.93,0,0,1-27.4-2.07q-12.13-2.1-20.46-8.34a39.82,39.82,0,0,1-12.83-17Q1809,2239.31,1809,2222V1819.66q7.63-1.38,22.55-3.81a187.07,187.07,0,0,1,30.16-2.43,164.1,164.1,0,0,1,27.4,2.07,46.85,46.85,0,0,1,20.46,8.32,40.13,40.13,0,0,1,12.84,17q4.5,10.77,4.5,28.1Z"/><path class="cls-1" d="M2179.39,2283q-40.93,0-75.95-11.46t-61-34.33q-26-22.87-40.91-57.56t-14.92-81.16q0-45.77,14.92-78.72t39.18-54.1a156.89,156.89,0,0,1,55.49-31.21,206.94,206.94,0,0,1,63.81-10.06q36.77,0,66.94,11.09t52,30.53a135.82,135.82,0,0,1,34,46.47q12.14,27,12.14,58.95,0,23.59-13.18,36.07t-36.77,16l-171.31,25.65q7.62,22.89,31.21,34.34t54.1,11.44a193.73,193.73,0,0,0,53.75-7.28q25.32-7.28,41.27-17a58.32,58.32,0,0,1,18.73,19.43,49.8,49.8,0,0,1,7.63,26.35q0,31.21-29.13,46.48-22.2,11.79-49.94,16A352.47,352.47,0,0,1,2179.39,2283ZM2160,2010.39q-16.65,0-28.78,5.55a58,58,0,0,0-19.77,14.23,58.87,58.87,0,0,0-11.44,19.41,79.36,79.36,0,0,0-4.51,21.85l118.6-19.42q-2.09-13.86-15.26-27.75T2160,2010.39Z"/><path class="cls-1" d="M522.33,470.67c-259.4,25.07-314.62,299.22-326.27,453.58-23.25,308-81.6,569.31,201,647.25,13.35,3.68,44.18,6.94,88.39,9.79C359.56,1054.65,457.32,654,522.33,470.67Z"/><path class="cls-1" d="M2311.16,924.25c-11.65-154.36-66.87-428.52-326.27-453.58,65,183.35,162.77,584,36.84,1110.62,44.17-2.85,75-6.11,88.39-9.79C2392.76,1493.56,2334.4,1232.28,2311.16,924.25Z"/><path class="cls-1" d="M1832.22,468.62H1581.93C1571.61,317.49,1399.14,217,1237.74,217S903.88,317.49,893.55,468.62H675.18C622.87,598.9,486.55,1020.26,633,1587.92c329,10.65,912.29,10.65,1241.28,0C2021.49,1017.87,1884.77,598.33,1832.22,468.62ZM1237.74,295.75c120.23,0,253.27,70.33,264.82,172.87H972.93C984.48,366.08,1117.51,295.75,1237.74,295.75Zm297,969.35q-23.51,58.53-65.75,97.14t-103.15,58.51q-60.91,19.88-134.51,19.89-79.62,0-135.12-18.69t-94.1-46.46Q949,1338.13,949,1279V636c8-2.42,20.91-5,38.6-7.87a347.69,347.69,0,0,1,54.28-4.21,285.27,285.27,0,0,1,47.66,3.62q21.09,3.63,35.6,14.47t21.72,29.56q7.22,18.74,7.23,48.88V838.64q30.15-12,57.31-16.9a344.67,344.67,0,0,1,59.71-4.82q57.9,0,109.78,20.53a271.91,271.91,0,0,1,91.69,59.71q39.83,39.2,62.74,97.1t22.92,133.93Q1558.23,1206.63,1534.7,1265.1Z"/><path class="cls-1" d="M1232.49,977.39q-24.13,0-41.61,4.81a242.73,242.73,0,0,0-38,14.48v263q13.26,8.46,32,13.88t46.45,5.42q55.47,0,86.26-38t30.77-112.8q0-76-31.38-113.41T1232.49,977.39Z"/></svg>