<?xml version="1.0" encoding="iso-8859-1"?>
<!-- Generator: Adobe Illustrator 19.0.0, SVG Export Plug-In . SVG Version: 6.00 Build 0)  -->
<svg version="1.1" id="Capa_1" xmlns="http://www.w3.org/2000/svg" xmlns:xlink="http://www.w3.org/1999/xlink" x="0px" y="0px"
	 viewBox="0 0 512 512" style="enable-background:new 0 0 512 512;" xml:space="preserve">
<g>
	<g>
		<g>
			<path d="M485.25,295.844L379.646,278.24l-30.604-45.906c-7.938-11.896-21.208-19-35.5-19h-157.75c-14.292,0-27.563,7.104-35.5,19
				l-30.875,46.323L24.25,294.948C9.979,298.51,0,311.281,0,325.99v53.594c0,12.573,4.896,24.396,13.792,33.292
				c8.771,8.76,20.896,13.792,33.292,13.792h28.661c4.956,24.314,26.492,42.667,52.255,42.667s47.299-18.353,52.255-42.667h140.823
				c4.956,24.314,26.492,42.667,52.255,42.667c25.763,0,47.299-18.353,52.255-42.667h47.807c8.146,0,15.458-4.51,19.104-11.792
				l17.25-34.521c0.375-0.75,0.667-1.542,0.854-2.354l1.125-4.771c0.188-0.792,0.271-1.604,0.271-2.417v-43.406
				C512,311.688,500.75,298.417,485.25,295.844z M128,448c-17.646,0-32-14.354-32-32c0-17.646,14.354-32,32-32s32,14.354,32,32
				C160,433.646,145.646,448,128,448z M373.333,448c-17.646,0-32-14.354-32-32c0-17.646,14.354-32,32-32c17.646,0,32,14.354,32,32
				C405.333,433.646,390.979,448,373.333,448z M490.667,369.573l-17.271,35.76h-47.807c-4.956-24.314-26.492-42.667-52.255-42.667
				c-25.763,0-47.299,18.353-52.255,42.667H180.255c-4.956-24.314-26.492-42.667-52.255-42.667s-47.299,18.353-52.255,42.667H47.083
				c-6.771,0-13.417-2.75-18.208-7.542c-4.854-4.865-7.542-11.333-7.542-18.208V325.99c0-4.906,3.333-9.156,8.083-10.354
				l69.167-17.292c2.583-0.635,4.813-2.219,6.292-4.427l33.167-49.75c3.958-5.948,10.604-9.5,17.75-9.5h157.75
				c7.146,0,13.792,3.552,17.75,9.5l33.167,49.75c1.625,2.458,4.208,4.125,7.125,4.604l110.167,18.365
				c5.167,0.854,8.917,5.281,8.917,10.521V369.573z"/>
			<path d="M324.417,137.927c5.458,0,10.917-2.083,15.083-6.24c8.313-8.313,8.313-21.854,0-30.167
				c-8.333-8.313-21.833-8.313-30.167,0c-8.313,8.313-8.313,21.854,0,30.167C313.5,135.844,318.958,137.927,324.417,137.927z"/>
			<path d="M143.083,146.771c2,2,4.708,3.125,7.542,3.125h91.979c3.604,7.313,8.271,13.854,13.938,19.5
				c14.083,14.104,32.833,21.875,52.792,21.875c19.958,0,38.708-7.771,52.792-21.875C376.229,155.302,384,136.552,384,116.604
				c0-19.938-7.771-38.688-21.875-52.792c-28.229-28.208-77.458-28.177-105.563-0.01c-5.688,5.656-10.354,12.198-13.958,19.51
				h-91.979c-2.833,0-5.542,1.125-7.542,3.125l-22.625,22.625c-4.167,4.167-4.167,10.917,0,15.083L143.083,146.771z
				 M155.042,104.646h94.542c4.438,0,8.396-2.74,9.979-6.885c2.75-7.292,6.813-13.635,12.063-18.865
				c20.125-20.146,55.292-20.146,75.417,0c10.083,10.073,15.625,23.469,15.625,37.708c0,14.24-5.542,27.635-15.625,37.708
				c-20.125,20.146-55.271,20.156-75.438-0.01c-5.229-5.219-9.292-11.563-12.042-18.854c-1.583-4.146-5.542-6.885-9.979-6.885
				h-94.542l-11.958-11.958L155.042,104.646z"/>
			<path d="M316.896,261.042c-1.938-3.135-5.375-5.042-9.063-5.042H161.5c-3.938,0-7.542,2.167-9.396,5.635l-22.833,42.667
				c-1.771,3.302-1.688,7.292,0.25,10.51c1.917,3.219,5.396,5.188,9.146,5.188h195.667c3.875,0,7.438-2.094,9.313-5.479
				c1.896-3.385,1.792-7.521-0.25-10.813L316.896,261.042z M156.479,298.667l11.417-21.333h134l13.25,21.333H156.479z"/>
		</g>
	</g>
</g>
<g>
</g>
<g>
</g>
<g>
</g>
<g>
</g>
<g>
</g>
<g>
</g>
<g>
</g>
<g>
</g>
<g>
</g>
<g>
</g>
<g>
</g>
<g>
</g>
<g>
</g>
<g>
</g>
<g>
</g>
</svg>
